<svg width="20" height="20" viewBox="0 0 20 20" fill="none" xmlns="http://www.w3.org/2000/svg">
<path d="M18.6798 7.54624L15.2029 0.683968C14.7257 -0.205586 13.9758 -0.205586 13.4986 0.556889C13.0213 1.44644 13.0213 2.84431 13.4304 3.73387L15.4075 7.67332H1.22714C0.545397 7.67332 0 8.68996 0 9.96075C0 11.2315 0.545397 12.2482 1.22714 12.2482H15.4756L13.4986 16.1876C13.0213 17.0772 13.0895 18.475 13.5667 19.3646C13.7713 19.7458 14.1121 20 14.3848 20C14.7257 20 14.9984 19.7458 15.2711 19.3646L18.748 12.5023C19.3616 10.9774 19.3616 8.94411 18.6798 7.54624Z" fill="#575445"/>
</svg>
