<svg width="94" height="48" viewBox="0 0 94 48" fill="none" xmlns="http://www.w3.org/2000/svg">
<g clip-path="url(#clip0_1_18)">
<path fill-rule="evenodd" clip-rule="evenodd" d="M23.97 0C37.2106 0 47.94 10.7533 47.94 24.0067C47.94 37.2602 37.2106 48 23.97 48C10.7294 48 0 37.2602 0 24.0067C0 10.7533 10.7294 0 23.97 0ZM24.4803 14.6514C19.0954 14.6514 14.7849 18.9392 14.7849 24.3965C14.7849 29.8135 19.0954 34.1014 24.4803 34.1014C27.0989 34.1014 29.3817 33.0529 31.0603 31.3727C31.2483 31.1845 31.2483 30.9964 31.0603 30.8082L29.2743 28.8995C29.1131 28.7113 28.8983 28.7113 28.7103 28.8726C27.5823 29.8673 26.1857 30.4856 24.4534 30.4856C21.1634 30.4856 18.5851 27.8779 18.5851 24.3965C18.5851 20.8883 21.1634 18.2672 24.4534 18.2672C26.1857 18.2672 27.5823 18.8855 28.7103 19.8936C28.8983 20.0549 29.1131 20.0549 29.2743 19.8667L31.0603 17.9446C31.2483 17.7564 31.2483 17.5682 31.0603 17.38C29.3817 15.7132 27.0989 14.6514 24.4803 14.6514ZM60.5646 17.8721C62.4111 17.8721 64.0291 18.5771 65.208 19.6987C65.3417 19.8259 65.3417 19.9521 65.208 20.0792L63.9523 21.364C63.8385 21.4902 63.6868 21.4902 63.553 21.3821C62.7535 20.7122 61.7634 20.2956 60.5456 20.2956C58.2249 20.2956 56.3973 22.051 56.3973 24.4025C56.3973 26.7367 58.2249 28.4913 60.5456 28.4913C61.7634 28.4913 62.7535 28.0756 63.553 27.4057C63.6868 27.2975 63.8385 27.2975 63.9523 27.4238L65.208 28.7086C65.3417 28.8348 65.3417 28.9619 65.208 29.0881C64.0291 30.2106 62.4111 30.9157 60.5646 30.9157C56.7596 30.9157 53.7143 28.0387 53.7143 24.4025C53.7143 20.7482 56.7596 17.8721 60.5646 17.8721ZM69.4708 21.6345C70.7274 21.6345 71.6597 22.1773 72.3074 22.9914L72.4013 22.0871C72.4213 21.9248 72.5161 21.8157 72.6868 21.8157H74.3427C74.5144 21.8157 74.6282 21.9248 74.6282 22.0871V30.409C74.6282 30.5713 74.5144 30.6804 74.3427 30.6804H72.6868C72.5161 30.6804 72.4213 30.5713 72.4013 30.409L72.2875 29.5408C71.6787 30.2828 70.7464 30.8075 69.4708 30.8075C66.8456 30.8075 64.9421 28.7987 64.9421 26.2661C64.9421 23.6794 66.8456 21.6345 69.4708 21.6345ZM77.806 17.4741C77.9777 17.4741 78.0915 17.5823 78.0915 17.7455V30.4095C78.0915 30.5718 77.9777 30.68 77.806 30.68H75.8646C75.693 30.68 75.5792 30.5718 75.5792 30.4095V17.7455C75.5792 17.5823 75.693 17.4741 75.8646 17.4741H77.806ZM90.4994 21.617C92.5347 21.617 94 22.992 94 25.3614V30.4095C94 30.5718 93.8862 30.68 93.7145 30.68H91.7731C91.6024 30.68 91.4886 30.5718 91.4886 30.4095V25.796C91.4886 24.33 90.6512 23.8233 89.7559 23.8233C88.3485 23.8233 87.7007 24.8917 87.7007 25.5246V30.4095C87.7007 30.5718 87.5869 30.68 87.4162 30.68H85.4748C85.3031 30.68 85.1893 30.5718 85.1893 30.4095V25.796C85.1893 24.33 84.3519 23.8233 83.4386 23.8233C82.0302 23.8233 81.3834 25.1441 81.3834 25.5607V30.4095C81.3834 30.5718 81.2686 30.68 81.0979 30.68H79.1575C78.9858 30.68 78.872 30.5718 78.872 30.4095V22.0868C78.872 21.9245 78.9858 21.8154 79.1575 21.8154H81.0211C81.1928 21.8154 81.2885 21.9245 81.3075 22.0868L81.3834 23.2444V23.2634C81.9923 22.3221 82.9824 21.617 84.3339 21.617C85.5696 21.617 86.6167 22.1958 87.2066 23.2634C87.8724 22.304 88.9763 21.617 90.4994 21.617ZM69.7562 23.8056C68.3668 23.8056 67.3587 24.819 67.3587 26.2481C67.3587 27.623 68.3668 28.6355 69.7562 28.6355C71.1656 28.6355 72.1358 27.605 72.1358 26.2481C72.1358 24.9092 71.1656 23.8056 69.7562 23.8056Z" fill="#353732"/>
</g>
<defs>
<clipPath id="clip0_1_18">
<rect width="94" height="48" fill="white"/>
</clipPath>
</defs>
</svg>
